<svg width="18" height="17" viewBox="0 0 18 17" fill="none" xmlns="http://www.w3.org/2000/svg">
<path d="M9.00385 12.2984C8.85999 12.2984 8.72512 12.2761 8.59924 12.2315C8.47336 12.1876 8.35647 12.1125 8.24857 12.0063L4.36427 8.18125C4.16646 7.98646 4.06755 7.73854 4.06755 7.4375C4.06755 7.13646 4.16646 6.88854 4.36427 6.69375C4.56208 6.49896 4.81816 6.39696 5.1325 6.38775C5.44756 6.37925 5.70399 6.4724 5.90181 6.66719L7.92488 8.65937V1.0625C7.92488 0.761458 8.02846 0.508938 8.23562 0.304938C8.44207 0.101646 8.69814 0 9.00385 0C9.30956 0 9.566 0.101646 9.77316 0.304938C9.9796 0.508938 10.0828 0.761458 10.0828 1.0625V8.65937L12.1059 6.66719C12.3037 6.4724 12.5601 6.37925 12.8752 6.38775C13.1895 6.39696 13.4456 6.49896 13.6434 6.69375C13.8412 6.88854 13.9402 7.13646 13.9402 7.4375C13.9402 7.73854 13.8412 7.98646 13.6434 8.18125L9.75913 12.0063C9.65124 12.1125 9.53435 12.1876 9.40847 12.2315C9.28259 12.2761 9.14772 12.2984 9.00385 12.2984ZM2.53002 17C1.93658 17 1.42874 16.7921 1.00651 16.3763C0.583549 15.9598 0.37207 15.4594 0.37207 14.875V12.75C0.37207 12.449 0.475292 12.1964 0.681736 11.9924C0.888898 11.7891 1.14533 11.6875 1.45104 11.6875C1.75675 11.6875 2.01319 11.7891 2.22035 11.9924C2.42679 12.1964 2.53002 12.449 2.53002 12.75V14.875H15.4777V12.75C15.4777 12.449 15.5813 12.1964 15.7884 11.9924C15.9949 11.7891 16.251 11.6875 16.5567 11.6875C16.8624 11.6875 17.1184 11.7891 17.3249 11.9924C17.5321 12.1964 17.6356 12.449 17.6356 12.75V14.875C17.6356 15.4594 17.4245 15.9598 17.0023 16.3763C16.5793 16.7921 16.0711 17 15.4777 17H2.53002Z" fill="#004274"/>
</svg>
