<?xml version="1.0" standalone="no"?>
<!DOCTYPE svg PUBLIC "-//W3C//DTD SVG 20010904//EN"
 "http://www.w3.org/TR/2001/REC-SVG-20010904/DTD/svg10.dtd">
<svg version="1.0" xmlns="http://www.w3.org/2000/svg"
 width="1213.000000pt" height="1434.000000pt" viewBox="0 0 1213.000000 1434.000000"
 preserveAspectRatio="xMidYMid meet">

<g transform="translate(0.000000,1434.000000) scale(0.100000,-0.100000)"
fill="#000000" stroke="none">
<path d="M6585 14149 c-225 -103 -645 -295 -932 -426 l-522 -238 0 -6095 -1
-6095 365 -190 c201 -104 391 -198 422 -207 75 -21 208 -22 286 -2 38 10 204
90 429 207 l368 192 0 6522 c0 3588 -1 6523 -2 6522 -2 0 -187 -86 -413 -190z"/>
<path d="M3660 10759 c-300 -137 -715 -326 -923 -421 l-377 -172 2 -3715 3
-3715 785 -409 c432 -224 849 -441 928 -481 l142 -73 0 4618 c0 2541 -3 4619
-7 4618 -5 0 -253 -113 -553 -250z"/>
<path d="M8830 10587 l-925 -422 -3 -4198 c-1 -2308 1 -4197 5 -4197 5 1 424
218 933 483 l925 482 3 4138 c1 2275 -1 4137 -5 4137 -5 0 -424 -190 -933
-423z"/>
<path d="M4673 5957 l-212 -112 -1 -452 0 -452 198 101 c108 55 207 107 220
115 l22 13 0 450 c0 248 -3 450 -7 450 -5 0 -104 -51 -220 -113z"/>
<path d="M7230 5621 l0 -449 203 -107 c111 -60 210 -112 220 -117 16 -8 17 16
17 446 l0 454 -216 111 c-119 61 -218 111 -220 111 -2 0 -4 -202 -4 -449z"/>
<path d="M10012 4172 l3 -455 385 -201 c212 -111 400 -211 417 -224 47 -33 73
-82 73 -134 0 -64 -39 -113 -131 -165 -41 -22 -996 -521 -2124 -1108 -1127
-587 -2104 -1096 -2171 -1131 -159 -84 -242 -106 -399 -106 -89 0 -140 5 -197
20 -78 21 -505 241 -3138 1615 -569 297 -1109 578 -1200 625 -198 102 -242
131 -269 176 -42 67 -21 156 48 207 17 12 205 113 418 224 l388 202 3 453 c2
393 0 451 -12 447 -67 -26 -1704 -888 -1763 -929 -451 -309 -447 -758 9 -1061
46 -30 407 -224 803 -430 396 -206 1121 -582 1610 -837 490 -254 1140 -593
1445 -753 826 -432 877 -455 1145 -521 578 -143 1301 -96 1783 117 115 51
4447 2305 4577 2382 294 173 446 415 407 648 -31 186 -177 366 -407 502 -49
29 -453 242 -898 473 l-807 420 2 -456z"/>
</g>
</svg>
